HIERARCHY
ROOT Hips
{
  OFFSET 0 96 0
  CHANNELS 6 Xposition Yposition Zposition Zrotation Xrotation Yrotation
  JOINT Spine
  {
    OFFSET 0 18 0
    CHANNELS 3 Zrotation Xrotation Yrotation
    JOINT Spine1
    {
      OFFSET 0 16 0
      CHANNELS 3 Zrotation Xrotation Yrotation
      JOINT Neck
      {
        OFFSET 0 14 0
        CHANNELS 3 Zrotation Xrotation Yrotation
        JOINT Head
        {
          OFFSET 0 12 0
          CHANNELS 3 Zrotation Xrotation Yrotation
          End Site
          {
            OFFSET 0 10 0
          }
        }
      }
      JOINT LeftShoulder
      {
        OFFSET 7 12 0
        CHANNELS 3 Zrotation Xrotation Yrotation
        JOINT LeftArm
        {
          OFFSET 14 0 0
          CHANNELS 3 Zrotation Xrotation Yrotation
          JOINT LeftForeArm
          {
            OFFSET 26 0 0
            CHANNELS 3 Zrotation Xrotation Yrotation
            JOINT LeftHand
            {
              OFFSET 24 0 0
              CHANNELS 3 Zrotation Xrotation Yrotation
              End Site
              {
                OFFSET 10 0 0
              }
            }
          }
        }
      }
      JOINT RightShoulder
      {
        OFFSET -7 12 0
        CHANNELS 3 Zrotation Xrotation Yrotation
        JOINT RightArm
        {
          OFFSET -14 0 0
          CHANNELS 3 Zrotation Xrotation Yrotation
          JOINT RightForeArm
          {
            OFFSET -26 0 0
            CHANNELS 3 Zrotation Xrotation Yrotation
            JOINT RightHand
            {
              OFFSET -24 0 0
              CHANNELS 3 Zrotation Xrotation Yrotation
              End Site
              {
                OFFSET -10 0 0
              }
            }
          }
        }
      }
    }
  }
  JOINT LeftUpLeg
  {
    OFFSET 9 -6 0
    CHANNELS 3 Zrotation Xrotation Yrotation
    JOINT LeftLeg
    {
      OFFSET 0 -42 0
      CHANNELS 3 Zrotation Xrotation Yrotation
      JOINT LeftFoot
      {
        OFFSET 0 -42 0
        CHANNELS 3 Zrotation Xrotation Yrotation
        End Site
        {
          OFFSET 0 -4 12
        }
      }
    }
  }
  JOINT RightUpLeg
  {
    OFFSET -9 -6 0
    CHANNELS 3 Zrotation Xrotation Yrotation
    JOINT RightLeg
    {
      OFFSET 0 -42 0
      CHANNELS 3 Zrotation Xrotation Yrotation
      JOINT RightFoot
      {
        OFFSET 0 -42 0
        CHANNELS 3 Zrotation Xrotation Yrotation
        End Site
        {
          OFFSET 0 -4 12
        }
      }
    }
  }
}
MOTION
Frames: 43
Frame Time: 0.0333333
0 -46.558632 -27.229163 0 4 0 0 16 0 0 7.2 0 0 -11.2 0 0 -4 0 4 0 6 0 16 -88 28 0 0 0 0 0 4 0 -6 0 16 88 -28 0 0 0 0 0 10 -96 0 0 112 0 0 -24 0 -10 -96 0 0 112 0 0 -24 0
0 -46.558632 -27.229163 0 4 0 0 16 0 0 7.2 0 0 -11.2 0 0 -4 0 4 0 6 0 16 -88 28 0 0 0 0 0 4 0 -6 0 16 88 -28 0 0 0 0 0 10 -96 0 0 112 0 0 -24 0 -10 -96 0 0 112 0 0 -24 0
0 -46.558632 -27.229163 0 4 0 0 16 0 0 7.2 0 0 -11.2 0 0 -4 0 4 0 6 0 16 -88 28 0 0 0 0 0 4 0 -6 0 16 88 -28 0 0 0 0 0 10 -96 0 0 112 0 0 -24 0 -10 -96 0 0 112 0 0 -24 0
0 -46.558632 -27.229163 0 4 0 0 16 0 0 7.2 0 0 -11.2 0 0 -4 0 4 0 6 0 16 -88 28 0 0 0 0 0 4 0 -6 0 16 88 -28 0 0 0 0 0 10 -96 0 0 112 0 0 -24 0 -10 -96 0 0 112 0 0 -24 0
0 -46.558632 -27.229163 0 4 0 0 16 0 0 7.2 0 0 -11.2 0 0 -4 0 4 0 6 0 16 -88 28 0 0 0 0 0 4 0 -6 0 16 88 -28 0 0 0 0 0 10 -96 0 0 112 0 0 -24 0 -10 -96 0 0 112 0 0 -24 0
0 -46.558632 -27.229163 0 4 0 0 16 0 0 7.2 0 0 -11.2 0 0 -4 0 4 0 6 0 16 -88 28 0 0 0 0 0 4 0 -6 0 16 88 -28 0 0 0 0 0 10 -96 0 0 112 0 0 -24 0 -10 -96 0 0 112 0 0 -24 0
0 -46.558632 -27.229163 0 4 0 0 16 0 0 7.2 0 0 -11.2 0 0 -4 0 4 0 6 0 16 -88 28 0 0 0 0 0 4 0 -6 0 16 88 -28 0 0 0 0 0 10 -96 0 0 112 0 0 -24 0 -10 -96 0 0 112 0 0 -24 0
0 -46.558632 -27.229163 0 4 0 0 16 0 0 7.2 0 0 -11.2 0 0 -4 0 4 0 6 0 16 -88 28 0 0 0 0 0 4 0 -6 0 16 88 -28 0 0 0 0 0 10 -96 0 0 112 0 0 -24 0 -10 -96 0 0 112 0 0 -24 0
0 -46.558632 -27.229163 0 4 0 0 16 0 0 7.2 0 0 -11.2 0 0 -4 0 4 0 6 0 16 -88 28 0 0 0 0 0 4 0 -6 0 16 88 -28 0 0 0 0 0 10 -96 0 0 112 0 0 -24 0 -10 -96 0 0 112 0 0 -24 0
0 -46.558632 -27.229163 0 4 0 0 16 0 0 7.2 0 0 -11.2 0 0 -4 0 4 0 6 0 16 -88 28 0 0 0 0 0 4 0 -6 0 16 88 -28 0 0 0 0 0 10 -96 0 0 112 0 0 -24 0 -10 -96 0 0 112 0 0 -24 0
0 -46.547378 -27.231728 0 3.999378 0 0 15.997513 0 0 7.198881 0 0 -11.198259 0 0 -3.999378 0 4 0 6 0 16 -88 28 0 0 0 0 0 4 0 -6 0 16 88 -28 0 0 0 0 0 9.998446 -95.985081 0 0 111.982594 0 0 -23.99627 0 -9.998446 -95.985081 0 0 111.982594 0 0 -23.99627 0
0 -46.420843 -27.260385 0 3.992389 0 0 15.969558 0 0 7.186301 0 0 -11.17869 0 0 -3.992389 0 4 0 6 0 16 -88 28 0 0 0 0 0 4 0 -6 0 16 88 -28 0 0 0 0 0 9.980973 -95.817346 0 0 111.786903 0 0 -23.954336 0 -9.980973 -95.817346 0 0 111.786903 0 0 -23.954336 0
0 -46.154182 -27.319709 0 3.977662 0 0 15.910647 0 0 7.159791 0 0 -11.137453 0 0 -3.977662 0 4 0 6 0 16 -88 28 0 0 0 0 0 4 0 -6 0 16 88 -28 0 0 0 0 0 9.944154 -95.46388 0 0 111.374526 0 0 -23.86597 0 -9.944154 -95.46388 0 0 111.374526 0 0 -23.86597 0
0 -45.74841 -27.407198 0 3.955252 0 0 15.821009 0 0 7.119454 0 0 -11.074707 0 0 -3.955252 0 4 0 6 0 16 -88 28 0 0 0 0 0 4 0 -6 0 16 88 -28 0 0 0 0 0 9.888131 -94.926056 0 0 110.747065 0 0 -23.731514 0 -9.888131 -94.926056 0 0 110.747065 0 0 -23.731514 0
0 -45.205119 -27.519091 0 3.925248 0 0 15.700994 0 0 7.065447 0 0 -10.990696 0 0 -3.925248 0 4 0 6 0 16 -88 28 0 0 0 0 0 4 0 -6 0 16 88 -28 0 0 0 0 0 9.813121 -94.205964 0 0 109.906958 0 0 -23.551491 0 -9.813121 -94.205964 0 0 109.906958 0 0 -23.551491 0
0 -44.526522 -27.650431 0 3.887767 0 0 15.551067 0 0 6.99798 0 0 -10.885747 0 0 -3.887767 0 4 0 6 0 16 -88 28 0 0 0 0 0 4 0 -6 0 16 88 -28 0 0 0 0 0 9.719417 -93.3064 0 0 108.857466 0 0 -23.3266 0 -9.719417 -93.3064 0 0 108.857466 0 0 -23.3266 0
0 -43.715513 -27.795158 0 3.842952 0 0 15.37181 0 0 6.917314 0 0 -10.760267 0 0 -3.842952 0 4 0 6 0 16 -88 28 0 0 0 0 0 4 0 -6 0 16 88 -28 0 0 0 0 0 9.607381 -92.230858 0 0 107.602668 0 0 -23.057715 0 -9.607381 -92.230858 0 0 107.602668 0 0 -23.057715 0
0 -42.775732 -27.946223 0 3.79098 0 0 15.163919 0 0 6.823764 0 0 -10.614744 0 0 -3.79098 0 4 0 6 0 16 -88 28 0 0 0 0 0 4 0 -6 0 16 88 -28 0 0 0 0 0 9.47745 -90.983516 0 0 106.147436 0 0 -22.745879 0 -9.47745 -90.983516 0 0 106.147436 0 0 -22.745879 0
0 -41.711641 -28.095724 0 3.732051 0 0 14.928203 0 0 6.717691 0 0 -10.449742 0 0 -3.732051 0 4 0 6 0 16 -88 28 0 0 0 0 0 4 0 -6 0 16 88 -28 0 0 0 0 0 9.330127 -89.569219 0 0 104.497423 0 0 -22.392305 0 -9.330127 -89.569219 0 0 104.497423 0 0 -22.392305 0
0 -40.528591 -28.235064 0 3.666394 0 0 14.665577 0 0 6.59951 0 0 -10.265904 0 0 -3.666394 0 4 0 6 0 16 -88 28 0 0 0 0 0 4 0 -6 0 16 88 -28 0 0 0 0 0 9.165985 -87.993461 0 0 102.659037 0 0 -21.998365 0 -9.165985 -87.993461 0 0 102.659037 0 0 -21.998365 0
0 -39.232884 -28.355132 0 3.594265 0 0 14.37706 0 0 6.469677 0 0 -10.063942 0 0 -3.594265 0 4 0 6 0 16 -88 28 0 0 0 0 0 4 0 -6 0 16 88 -28 0 0 0 0 0 8.985663 -86.26236 0 0 100.63942 0 0 -21.56559 0 -8.985663 -86.26236 0 0 100.63942 0 0 -21.56559 0
0 -37.831829 -28.446497 0 3.515943 0 0 14.063774 0 0 6.328698 0 0 -9.844642 0 0 -3.515943 0 4 0 6 0 16 -88 28 0 0 0 0 0 4 0 -6 0 16 88 -28 0 0 0 0 0 8.789859 -84.382643 0 0 98.446416 0 0 -21.095661 0 -8.789859 -84.382643 0 0 98.446416 0 0 -21.095661 0
0 -36.333771 -28.499623 0 3.431734 0 0 13.726935 0 0 6.177121 0 0 -9.608854 0 0 -3.431734 0 4 0 6 0 16 -88 28 0 0 0 0 0 4 0 -6 0 16 88 -28 0 0 0 0 0 8.579334 -82.361609 0 0 96.088544 0 0 -20.590402 0 -8.579334 -82.361609 0 0 96.088544 0 0 -20.590402 0
0 -34.748107 -28.505089 0 3.341963 0 0 13.367851 0 0 6.015533 0 0 -9.357496 0 0 -3.341963 0 4 0 6 0 16 -88 28 0 0 0 0 0 4 0 -6 0 16 88 -28 0 0 0 0 0 8.354907 -80.207109 0 0 93.57496 0 0 -20.051777 0 -8.354907 -80.207109 0 0 93.57496 0 0 -20.051777 0
0 -33.085266 -28.453822 0 3.24698 0 0 12.987918 0 0 5.844563 0 0 -9.091543 0 0 -3.24698 0 4 0 6 0 16 -88 28 0 0 0 0 0 4 0 -6 0 16 88 -28 0 0 0 0 0 8.117449 -77.92751 0 0 90.915429 0 0 -19.481878 0 -8.117449 -77.92751 0 0 90.915429 0 0 -19.481878 0
0 -31.356663 -28.337324 0 3.147153 0 0 12.588611 0 0 5.664875 0 0 -8.812028 0 0 -3.147153 0 4 0 6 0 16 -88 28 0 0 0 0 0 4 0 -6 0 16 88 -28 0 0 0 0 0 7.867882 -75.531669 0 0 88.12028 0 0 -18.882917 0 -7.867882 -75.531669 0 0 88.12028 0 0 -18.882917 0
0 -29.574618 -28.147895 0 3.04287 0 0 12.171482 0 0 5.477167 0 0 -8.520037 0 0 -3.04287 0 4 0 6 0 16 -88 28 0 0 0 0 0 4 0 -6 0 16 88 -28 0 0 0 0 0 7.607176 -73.02889 0 0 85.200371 0 0 -18.257222 0 -7.607176 -73.02889 0 0 85.200371 0 0 -18.257222 0
0 -27.752238 -27.878852 0 2.934537 0 0 11.738149 0 0 5.282167 0 0 -8.216704 0 0 -2.934537 0 4 0 6 0 16 -88 28 0 0 0 0 0 4 0 -6 0 16 88 -28 0 0 0 0 0 7.336343 -70.428894 0 0 82.167043 0 0 -17.607224 0 -7.336343 -70.428894 0 0 82.167043 0 0 -17.607224 0
0 -25.903271 -27.524715 0 2.822574 0 0 11.290297 0 0 5.080634 0 0 -7.903208 0 0 -2.822574 0 4 0 6 0 16 -88 28 0 0 0 0 0 4 0 -6 0 16 88 -28 0 0 0 0 0 7.056436 -67.741781 0 0 79.032078 0 0 -16.935445 0 -7.056436 -67.741781 0 0 79.032078 0 0 -16.935445 0
0 -24.041916 -27.081381 0 2.707416 0 0 10.829665 0 0 4.873349 0 0 -7.580765 0 0 -2.707416 0 4 0 6 0 16 -88 28 0 0 0 0 0 4 0 -6 0 16 88 -28 0 0 0 0 0 6.76854 -64.977987 0 0 75.807652 0 0 -16.244497 0 -6.76854 -64.977987 0 0 75.807652 0 0 -16.244497 0
0 -22.182618 -26.546255 0 2.58951 0 0 10.358041 0 0 4.661119 0 0 -7.250629 0 0 -2.58951 0 4 0 6 0 16 -88 28 0 0 0 0 0 4 0 -6 0 16 88 -28 0 0 0 0 0 6.473776 -62.148248 0 0 72.50629 0 0 -15.537062 0 -6.473776 -62.148248 0 0 72.50629 0 0 -15.537062 0
0 -20.339832 -25.918354 0 2.469315 0 0 9.877259 0 0 4.444767 0 0 -6.914081 0 0 -2.469315 0 4 0 6 0 16 -88 28 0 0 0 0 0 4 0 -6 0 16 88 -28 0 0 0 0 0 6.173287 -59.263555 0 0 69.140814 0 0 -14.815889 0 -6.173287 -59.263555 0 0 69.140814 0 0 -14.815889 0
0 -18.52777 -25.198363 0 2.347296 0 0 9.389185 0 0 4.225133 0 0 -6.57243 0 0 -2.347296 0 4 0 6 0 16 -88 28 0 0 0 0 0 4 0 -6 0 16 88 -28 0 0 0 0 0 5.868241 -56.335113 0 0 65.724298 0 0 -14.083778 0 -5.868241 -56.335113 0 0 65.724298 0 0 -14.083778 0
0 -16.760146 -24.388649 0 2.223929 0 0 8.895716 0 0 4.003072 0 0 -6.227001 0 0 -2.223929 0 4 0 6 0 16 -88 28 0 0 0 0 0 4 0 -6 0 16 88 -28 0 0 0 0 0 5.559822 -53.374295 0 0 62.270011 0 0 -13.343574 0 -5.559822 -53.374295 0 0 62.270011 0 0 -13.343574 0
0 -15.049916 -23.493234 0 2.099692 0 0 8.398767 0 0 3.779445 0 0 -5.879137 0 0 -2.099692 0 4 0 6 0 16 -88 28 0 0 0 0 0 4 0 -6 0 16 88 -28 0 0 0 0 0 5.249229 -50.392603 0 0 58.79137 0 0 -12.598151 0 -5.249229 -50.392603 0 0 58.79137 0 0 -12.598151 0
0 -13.40903 -22.517713 0 1.975067 0 0 7.900269 0 0 3.555121 0 0 -5.530189 0 0 -1.975067 0 4 0 6 0 16 -88 28 0 0 0 0 0 4 0 -6 0 16 88 -28 0 0 0 0 0 4.937668 -47.401617 0 0 55.301886 0 0 -11.850404 0 -4.937668 -47.401617 0 0 55.301886 0 0 -11.850404 0
0 -11.848206 -21.469148 0 1.85054 0 0 7.402159 0 0 3.330972 0 0 -5.181511 0 0 -1.85054 0 4 0 6 0 16 -88 28 0 0 0 0 0 4 0 -6 0 16 88 -28 0 0 0 0 0 4.62635 -44.412956 0 0 51.815115 0 0 -11.103239 0 -4.62635 -44.412956 0 0 51.815115 0 0 -11.103239 0
0 -10.376726 -20.355907 0 1.726593 0 0 6.906371 0 0 3.107867 0 0 -4.83446 0 0 -1.726593 0 4 0 6 0 16 -88 28 0 0 0 0 0 4 0 -6 0 16 88 -28 0 0 0 0 0 4.316482 -41.438227 0 0 48.344598 0 0 -10.359557 0 -4.316482 -41.438227 0 0 48.344598 0 0 -10.359557 0
0 -9.002272 -19.187483 0 1.603708 0 0 6.414831 0 0 2.886674 0 0 -4.490382 0 0 -1.603708 0 4 0 6 0 16 -88 28 0 0 0 0 0 4 0 -6 0 16 88 -28 0 0 0 0 0 4.009269 -38.488985 0 0 44.903816 0 0 -9.622246 0 -4.009269 -38.488985 0 0 44.903816 0 0 -9.622246 0
0 -7.730799 -17.974285 0 1.482362 0 0 5.929448 0 0 2.668251 0 0 -4.150613 0 0 -1.482362 0 4 0 6 0 16 -88 28 0 0 0 0 0 4 0 -6 0 16 88 -28 0 0 0 0 0 3.705905 -35.576686 0 0 41.506133 0 0 -8.894171 0 -3.705905 -35.576686 0 0 41.506133 0 0 -8.894171 0
0 -6.566459 -16.727411 0 1.363027 0 0 5.452107 0 0 2.453448 0 0 -3.816475 0 0 -1.363027 0 4 0 6 0 16 -88 28 0 0 0 0 0 4 0 -6 0 16 88 -28 0 0 0 0 0 3.407567 -32.712641 0 0 38.164748 0 0 -8.17816 0 -3.407567 -32.712641 0 0 38.164748 0 0 -8.17816 0
0 -5.511567 -15.458415 0 1.246166 0 0 4.984662 0 0 2.243098 0 0 -3.489264 0 0 -1.246166 0 4 0 6 0 16 -88 28 0 0 0 0 0 4 0 -6 0 16 88 -28 0 0 0 0 0 3.115414 -29.907974 0 0 34.892637 0 0 -7.476994 0 -3.115414 -29.907974 0 0 34.892637 0 0 -7.476994 0
0 -4.566618 -14.179076 0 1.132233 0 0 4.52893 0 0 2.038019 0 0 -3.170251 0 0 -1.132233 0 4 0 6 0 16 -88 28 0 0 0 0 0 4 0 -6 0 16 88 -28 0 0 0 0 0 2.830581 -27.173581 0 0 31.702511 0 0 -6.793395 0 -2.830581 -27.173581 0 0 31.702511 0 0 -6.793395 0
